# Tiled2Unity generated file. Do not modify by hand.
# Wavefront file for 'TestFight_mesh_0002.obj'

# Vertices (Count = 184)
v -704 -560 0
v -720 -560 0
v -720 -544 0
v -704 -544 0
v -688 -560 0
v -704 -560 0
v -704 -544 0
v -688 -544 0
v -672 -560 0
v -688 -560 0
v -688 -544 0
v -672 -544 0
v -656 -560 0
v -672 -560 0
v -672 -544 0
v -656 -544 0
v -640 -560 0
v -656 -560 0
v -656 -544 0
v -640 -544 0
v -624 -560 0
v -640 -560 0
v -640 -544 0
v -624 -544 0
v -608 -560 0
v -624 -560 0
v -624 -544 0
v -608 -544 0
v -592 -560 0
v -608 -560 0
v -608 -544 0
v -592 -544 0
v -576 -560 0
v -592 -560 0
v -592 -544 0
v -576 -544 0
v -560 -560 0
v -576 -560 0
v -576 -544 0
v -560 -544 0
v -544 -560 0
v -560 -560 0
v -560 -544 0
v -544 -544 0
v -528 -560 0
v -544 -560 0
v -544 -544 0
v -528 -544 0
v -512 -560 0
v -528 -560 0
v -528 -544 0
v -512 -544 0
v -496 -560 0
v -512 -560 0
v -512 -544 0
v -496 -544 0
v -480 -560 0
v -496 -560 0
v -496 -544 0
v -480 -544 0
v -464 -560 0
v -480 -560 0
v -480 -544 0
v -464 -544 0
v -448 -560 0
v -464 -560 0
v -464 -544 0
v -448 -544 0
v -432 -560 0
v -448 -560 0
v -448 -544 0
v -432 -544 0
v -416 -560 0
v -432 -560 0
v -432 -544 0
v -416 -544 0
v -400 -560 0
v -416 -560 0
v -416 -544 0
v -400 -544 0
v -384 -560 0
v -400 -560 0
v -400 -544 0
v -384 -544 0
v -368 -560 0
v -384 -560 0
v -384 -544 0
v -368 -544 0
v -352 -560 0
v -368 -560 0
v -368 -544 0
v -352 -544 0
v -704 -576 0
v -720 -576 0
v -720 -560 0
v -704 -560 0
v -688 -576 0
v -704 -576 0
v -704 -560 0
v -688 -560 0
v -672 -576 0
v -688 -576 0
v -688 -560 0
v -672 -560 0
v -656 -576 0
v -672 -576 0
v -672 -560 0
v -656 -560 0
v -640 -576 0
v -656 -576 0
v -656 -560 0
v -640 -560 0
v -624 -576 0
v -640 -576 0
v -640 -560 0
v -624 -560 0
v -608 -576 0
v -624 -576 0
v -624 -560 0
v -608 -560 0
v -592 -576 0
v -608 -576 0
v -608 -560 0
v -592 -560 0
v -576 -576 0
v -592 -576 0
v -592 -560 0
v -576 -560 0
v -560 -576 0
v -576 -576 0
v -576 -560 0
v -560 -560 0
v -544 -576 0
v -560 -576 0
v -560 -560 0
v -544 -560 0
v -528 -576 0
v -544 -576 0
v -544 -560 0
v -528 -560 0
v -512 -576 0
v -528 -576 0
v -528 -560 0
v -512 -560 0
v -496 -576 0
v -512 -576 0
v -512 -560 0
v -496 -560 0
v -480 -576 0
v -496 -576 0
v -496 -560 0
v -480 -560 0
v -464 -576 0
v -480 -576 0
v -480 -560 0
v -464 -560 0
v -448 -576 0
v -464 -576 0
v -464 -560 0
v -448 -560 0
v -432 -576 0
v -448 -576 0
v -448 -560 0
v -432 -560 0
v -416 -576 0
v -432 -576 0
v -432 -560 0
v -416 -560 0
v -400 -576 0
v -416 -576 0
v -416 -560 0
v -400 -560 0
v -384 -576 0
v -400 -576 0
v -400 -560 0
v -384 -560 0
v -368 -576 0
v -384 -576 0
v -384 -560 0
v -368 -560 0
v -352 -576 0
v -368 -576 0
v -368 -560 0
v -352 -560 0

# Texture cooridinates (Count = 27)
vt 0.2083333 0.875
vt 0.25 0.875
vt 0.25 0.9375
vt 0.2083333 0.9375
vt 0.1666667 0.875
vt 0.1666667 0.9375
vt 0.08333334 0.875
vt 0.125 0.875
vt 0.125 0.9375
vt 0.08333334 0.9375
vt 0.1666667 0.75
vt 0.2083333 0.75
vt 0.2083333 0.8125
vt 0.1666667 0.8125
vt 0.2916667 0.9375
vt 0.3333333 0.9375
vt 0.3333333 1
vt 0.2916667 1
vt 0.25 1
vt 0.125 0.75
vt 0.125 0.8125
vt 0.2083333 1
vt 0.1666667 1
vt 0 0.8125
vt 0.04166667 0.8125
vt 0.04166667 0.875
vt 0 0.875

# Normal
vn 0 0 -1

# Mesh description
g TestFight_mesh_0002

# Faces
f 1/1/1 2/2/1 3/3/1 4/4/1
f 5/5/1 6/1/1 7/4/1 8/6/1
f 9/7/1 10/8/1 11/9/1 12/10/1
f 13/7/1 14/8/1 15/9/1 16/10/1
f 17/8/1 18/5/1 19/6/1 20/9/1
f 21/7/1 22/8/1 23/9/1 24/10/1
f 25/8/1 26/5/1 27/6/1 28/9/1
f 29/8/1 30/5/1 31/6/1 32/9/1
f 33/5/1 34/1/1 35/4/1 36/6/1
f 37/7/1 38/8/1 39/9/1 40/10/1
f 41/11/1 42/12/1 43/13/1 44/14/1
f 45/7/1 46/8/1 47/9/1 48/10/1
f 49/15/1 50/16/1 51/17/1 52/18/1
f 53/3/1 54/15/1 55/18/1 56/19/1
f 57/8/1 58/5/1 59/6/1 60/9/1
f 61/15/1 62/16/1 63/17/1 64/18/1
f 65/5/1 66/1/1 67/4/1 68/6/1
f 69/8/1 70/5/1 71/6/1 72/9/1
f 73/3/1 74/15/1 75/18/1 76/19/1
f 77/7/1 78/8/1 79/9/1 80/10/1
f 81/8/1 82/5/1 83/6/1 84/9/1
f 85/5/1 86/1/1 87/4/1 88/6/1
f 89/2/1 90/1/1 91/4/1 92/3/1
f 93/20/1 94/11/1 95/14/1 96/21/1
f 97/6/1 98/4/1 99/22/1 100/23/1
f 101/6/1 102/4/1 103/22/1 104/23/1
f 105/6/1 106/4/1 107/22/1 108/23/1
f 109/6/1 110/4/1 111/22/1 112/23/1
f 113/6/1 114/4/1 115/22/1 116/23/1
f 117/6/1 118/4/1 119/22/1 120/23/1
f 121/6/1 122/4/1 123/22/1 124/23/1
f 125/6/1 126/4/1 127/22/1 128/23/1
f 129/6/1 130/4/1 131/22/1 132/23/1
f 133/6/1 134/4/1 135/22/1 136/23/1
f 137/6/1 138/4/1 139/22/1 140/23/1
f 141/6/1 142/4/1 143/22/1 144/23/1
f 145/6/1 146/4/1 147/22/1 148/23/1
f 149/6/1 150/4/1 151/22/1 152/23/1
f 153/6/1 154/4/1 155/22/1 156/23/1
f 157/6/1 158/4/1 159/22/1 160/23/1
f 161/6/1 162/4/1 163/22/1 164/23/1
f 165/6/1 166/4/1 167/22/1 168/23/1
f 169/6/1 170/4/1 171/22/1 172/23/1
f 173/6/1 174/4/1 175/22/1 176/23/1
f 177/6/1 178/4/1 179/22/1 180/23/1
f 181/24/1 182/25/1 183/26/1 184/27/1

