# Tiled2Unity generated file. Do not modify by hand.
# Wavefront file for 'map1_mesh_0002.obj'

# Vertices (Count = 124)
v -368 -240 0
v -384 -240 0
v -384 -224 0
v -368 -224 0
v -352 -240 0
v -368 -240 0
v -368 -224 0
v -352 -224 0
v -416 -256 0
v -432 -256 0
v -432 -240 0
v -416 -240 0
v -400 -256 0
v -416 -256 0
v -416 -240 0
v -400 -240 0
v -384 -256 0
v -400 -256 0
v -400 -240 0
v -384 -240 0
v -368 -256 0
v -384 -256 0
v -384 -240 0
v -368 -240 0
v -352 -256 0
v -368 -256 0
v -368 -240 0
v -352 -240 0
v -480 -288 0
v -496 -288 0
v -496 -272 0
v -480 -272 0
v -464 -288 0
v -480 -288 0
v -480 -272 0
v -464 -272 0
v -272 -288 0
v -288 -288 0
v -288 -272 0
v -272 -272 0
v -208 -288 0
v -224 -288 0
v -224 -272 0
v -208 -272 0
v -192 -288 0
v -208 -288 0
v -208 -272 0
v -192 -272 0
v -528 -304 0
v -544 -304 0
v -544 -288 0
v -528 -288 0
v -512 -304 0
v -528 -304 0
v -528 -288 0
v -512 -288 0
v -496 -304 0
v -512 -304 0
v -512 -288 0
v -496 -288 0
v -480 -304 0
v -496 -304 0
v -496 -288 0
v -480 -288 0
v -464 -304 0
v -480 -304 0
v -480 -288 0
v -464 -288 0
v -352 -304 0
v -368 -304 0
v -368 -288 0
v -352 -288 0
v -208 -304 0
v -224 -304 0
v -224 -288 0
v -208 -288 0
v -192 -304 0
v -208 -304 0
v -208 -288 0
v -192 -288 0
v -480 -432 0
v -496 -432 0
v -496 -416 0
v -480 -416 0
v -560 -464 0
v -576 -464 0
v -576 -448 0
v -560 -448 0
v -384 -480 0
v -400 -480 0
v -400 -464 0
v -384 -464 0
v -400 -512 0
v -416 -512 0
v -416 -496 0
v -400 -496 0
v -288 -528 0
v -304 -528 0
v -304 -512 0
v -288 -512 0
v -272 -528 0
v -288 -528 0
v -288 -512 0
v -272 -512 0
v -336 -544 0
v -352 -544 0
v -352 -528 0
v -336 -528 0
v -320 -544 0
v -336 -544 0
v -336 -528 0
v -320 -528 0
v -304 -544 0
v -320 -544 0
v -320 -528 0
v -304 -528 0
v -288 -544 0
v -304 -544 0
v -304 -528 0
v -288 -528 0
v -272 -544 0
v -288 -544 0
v -288 -528 0
v -272 -528 0

# Texture cooridinates (Count = 25)
vt 0.8 0.8888889
vt 0.825 0.8888889
vt 0.825 0.9166667
vt 0.8 0.9166667
vt 0.775 0.8888889
vt 0.775 0.9166667
vt 0.125 0.8333333
vt 0.15 0.8333333
vt 0.15 0.8611111
vt 0.125 0.8611111
vt 0.1 0.8333333
vt 0.1 0.8611111
vt 0.075 0.8333333
vt 0.075 0.8611111
vt 0.8 0.8611111
vt 0.825 0.8611111
vt 0.775 0.8611111
vt 0.225 0.8333333
vt 0.25 0.8333333
vt 0.25 0.8611111
vt 0.225 0.8611111
vt 0.175 0.8333333
vt 0.175 0.8611111
vt 0.2 0.8333333
vt 0.2 0.8611111

# Normal
vn 0 0 -1

# Mesh description
g map1_mesh_0002

# Faces
f 1/1/1 2/2/1 3/3/1 4/4/1
f 5/5/1 6/1/1 7/4/1 8/6/1
f 9/7/1 10/8/1 11/9/1 12/10/1
f 13/11/1 14/7/1 15/10/1 16/12/1
f 17/13/1 18/11/1 19/12/1 20/14/1
f 21/15/1 22/16/1 23/2/1 24/1/1
f 25/17/1 26/15/1 27/1/1 28/5/1
f 29/1/1 30/2/1 31/3/1 32/4/1
f 33/5/1 34/1/1 35/4/1 36/6/1
f 37/18/1 38/19/1 39/20/1 40/21/1
f 41/1/1 42/2/1 43/3/1 44/4/1
f 45/5/1 46/1/1 47/4/1 48/6/1
f 49/7/1 50/8/1 51/9/1 52/10/1
f 53/11/1 54/7/1 55/10/1 56/12/1
f 57/13/1 58/11/1 59/12/1 60/14/1
f 61/15/1 62/16/1 63/2/1 64/1/1
f 65/17/1 66/15/1 67/1/1 68/5/1
f 69/8/1 70/22/1 71/23/1 72/9/1
f 73/15/1 74/16/1 75/2/1 76/1/1
f 77/17/1 78/15/1 79/1/1 80/5/1
f 81/22/1 82/24/1 83/25/1 84/23/1
f 85/24/1 86/18/1 87/21/1 88/25/1
f 89/24/1 90/18/1 91/21/1 92/25/1
f 93/24/1 94/18/1 95/21/1 96/25/1
f 97/1/1 98/2/1 99/3/1 100/4/1
f 101/5/1 102/1/1 103/4/1 104/6/1
f 105/7/1 106/8/1 107/9/1 108/10/1
f 109/11/1 110/7/1 111/10/1 112/12/1
f 113/13/1 114/11/1 115/12/1 116/14/1
f 117/15/1 118/16/1 119/2/1 120/1/1
f 121/17/1 122/15/1 123/1/1 124/5/1

