# Tiled2Unity generated file. Do not modify by hand.
# Wavefront file for 'map1_mesh_0003.obj'

# Vertices (Count = 32)
v -560 -256 0
v -576 -256 0
v -576 -240 0
v -560 -240 0
v -544 -256 0
v -560 -256 0
v -560 -240 0
v -544 -240 0
v -560 -272 0
v -576 -272 0
v -576 -256 0
v -560 -256 0
v -544 -272 0
v -560 -272 0
v -560 -256 0
v -544 -256 0
v -304 -320 0
v -320 -320 0
v -320 -304 0
v -304 -304 0
v -528 -384 0
v -544 -384 0
v -544 -368 0
v -528 -368 0
v -608 -448 0
v -624 -448 0
v -624 -432 0
v -608 -432 0
v -528 -544 0
v -544 -544 0
v -544 -528 0
v -528 -528 0

# Texture cooridinates (Count = 13)
vt 0.3939394 0.35
vt 0.4242424 0.35
vt 0.4242424 0.4
vt 0.3939394 0.4
vt 0.3636364 0.35
vt 0.3636364 0.4
vt 0.3939394 0.3
vt 0.4242424 0.3
vt 0.3636364 0.3
vt 0 0.95
vt 0.03030303 0.95
vt 0.03030303 1
vt 0 1

# Normal
vn 0 0 -1

# Mesh description
g map1_mesh_0003

# Faces
f 1/1/1 2/2/1 3/3/1 4/4/1
f 5/5/1 6/1/1 7/4/1 8/6/1
f 9/7/1 10/8/1 11/2/1 12/1/1
f 13/9/1 14/7/1 15/1/1 16/5/1
f 17/10/1 18/11/1 19/12/1 20/13/1
f 21/10/1 22/11/1 23/12/1 24/13/1
f 25/10/1 26/11/1 27/12/1 28/13/1
f 29/10/1 30/11/1 31/12/1 32/13/1

